<svg width="251" height="250" viewBox="0 0 251 250" fill="none" xmlns="http://www.w3.org/2000/svg">
<circle cx="125" cy="125" r="125" fill="#19A7C4"/>
<path d="M74.4 170C73.8 170 72.95 169.65 71.85 168.95L17.85 132.2C16.35 131.2 15.25 130.25 14.55 129.35C13.85 128.35 13.5 127.15 13.5 125.75V121.1C13.5 119.7 13.85 118.5 14.55 117.5C15.25 116.5 16.35 115.5 17.85 114.5L71.85 77.75C73.05 77.15 73.9 76.85 74.4 76.85C75.3 76.85 76.05 77.15 76.65 77.75C77.25 78.25 77.55 78.95 77.55 79.85V96.05C77.55 97.45 77.15 98.6 76.35 99.5C75.65 100.3 74.65 101.1 73.35 101.9L40.65 123.35L73.35 144.95C74.75 145.75 75.8 146.55 76.5 147.35C77.2 148.15 77.55 149.25 77.55 150.65V166.85C77.55 167.75 77.25 168.5 76.65 169.1C76.05 169.7 75.3 170 74.4 170ZM93.2402 188.6C92.3402 188.6 91.5402 188.25 90.8402 187.55C90.2402 186.95 89.9402 186.25 89.9402 185.45C89.9402 185.25 90.0902 184.75 90.3902 183.95L141.09 61.7C142.29 59.3 144.09 58.1 146.49 58.1H159.99C160.89 58.1 161.64 58.45 162.24 59.15C162.84 59.75 163.14 60.45 163.14 61.25C163.14 61.75 163.04 62.25 162.84 62.75L111.84 185C110.84 187.4 109.04 188.6 106.44 188.6H93.2402ZM178.617 170C177.817 170 177.117 169.7 176.517 169.1C175.917 168.5 175.617 167.75 175.617 166.85V150.65C175.617 149.25 175.967 148.15 176.667 147.35C177.367 146.55 178.417 145.75 179.817 144.95L212.367 123.35L179.817 101.9C178.517 101.1 177.467 100.3 176.667 99.5C175.967 98.6 175.617 97.45 175.617 96.05V79.85C175.617 78.95 175.917 78.25 176.517 77.75C177.117 77.15 177.817 76.85 178.617 76.85C179.317 76.85 180.167 77.15 181.167 77.75L235.317 114.5C236.817 115.5 237.917 116.5 238.617 117.5C239.317 118.5 239.667 119.7 239.667 121.1V125.75C239.667 127.15 239.317 128.35 238.617 129.35C237.917 130.25 236.817 131.2 235.317 132.2L181.167 168.95C180.267 169.65 179.417 170 178.617 170Z" fill="white"/>
</svg>
